<?xml version="1.0" encoding="UTF-8" standalone="no"?>
<!-- Created with Inkscape (http://www.inkscape.org/) -->

<svg
   width="78.577881mm"
   height="18.827082mm"
   viewBox="0 0 78.577881 18.827082"
   version="1.1"
   id="svg5"
   xmlns="http://www.w3.org/2000/svg"
   xmlns:svg="http://www.w3.org/2000/svg">
  <defs
     id="defs2" />
  <g
     id="layer1">
    <g
       aria-label="ЗЛАГОДА"
       id="text236"
       style="font-size:19.7556px;font-family:kablamo;-inkscape-font-specification:kablamo;fill:#EEEEEE;stroke-width:0.499999;stroke-linecap:round;stroke-linejoin:round">
      <path
         d="m 6.8848266,14.243788 q 0.2568228,0 0.4049898,-0.167923 0.1580448,-0.167923 0.1580448,-0.49389 0,-0.237067 -0.148167,-0.365479 -0.148167,-0.138289 -0.3654786,-0.138289 -0.3358452,0 -0.4840122,0.177801 -0.148167,0.167922 -0.148167,0.375356 0,0.217312 0.148167,0.414868 0.1580448,0.197556 0.4346232,0.197556 z m -4.988289,-0.256823 q 0.395112,0 0.642057,-0.256823 0.246945,-0.256823 0.246945,-0.622301 0,-0.286457 -0.2173116,-0.523524 -0.2173116,-0.237067 -0.6321792,-0.237067 -0.3062118,0 -0.5531568,0.246945 -0.2370672,0.237067 -0.2370672,0.572912 0,0.335846 0.246945,0.582791 0.2568228,0.237067 0.5037678,0.237067 z m 2.4496944,0.839613 q 0.3358452,0 0.5729124,-0.217312 0.246945,-0.227189 0.246945,-0.622301 0,-0.256823 -0.197556,-0.454379 -0.197556,-0.207434 -0.5235234,-0.207434 -0.4049898,0 -0.592668,0.237067 -0.1876782,0.237068 -0.1876782,0.523524 0,0.246945 0.2074338,0.49389 0.2074338,0.246945 0.4741344,0.246945 z M 0.23706721,3.4572301 q 0,-0.444501 0.5136456,-0.839613 Q 1.2643584,2.2126273 2.173116,1.9656823 q 0.9087576,-0.246945 2.0940936,-0.246945 1.135947,0 1.9953156,0.3654786 0.8593686,0.3556008 1.333503,1.0075356 0.4840122,0.6519348 0.4840122,1.531059 0,0.8692464 -0.2765784,1.3927698 Q 7.5367614,6.5391037 7.1317716,6.8354377 6.7366596,7.1218939 6.3316698,7.2799387 5.9365578,7.4379835 5.6599794,7.5565171 5.3932788,7.6651729 5.3932788,7.8429733 q 0,0.1876782 0.3556008,0.3160896 0.3654786,0.1284114 0.889002,0.3160896 0.5334012,0.1778004 1.0569246,0.5334012 0.5334012,0.3556008 0.889002,0.98778 0.3654786,0.6321793 0.3654786,1.6594703 0,1.007536 -0.3358452,1.817515 -0.3259674,0.80998 -0.9482688,1.39277 -0.6124236,0.58279 -1.4520366,0.889002 -0.839613,0.306212 -1.8669042,0.306212 -0.642057,0 -1.3927698,-0.148167 Q 2.2027494,15.764969 1.531059,15.439001 0.85936861,15.103156 0.42474541,14.559877 1.1920929e-8,14.016598 1.1920929e-8,13.236252 q 0,-0.849491 0.523523398079071,-1.471792 0.52352339,-0.622302 1.47179219,-0.622302 0.4642566,0 0.8297352,0.128412 0.3753564,0.128411 0.7309572,0.306212 0.3259674,0.158044 0.6716904,0.316089 0.345723,0.158045 0.740835,0.256823 0.4049898,0.09878 0.8988798,0.09878 0.642057,0 0.9186354,-0.217312 0.2864562,-0.217311 0.2864562,-0.67169 0,-0.464257 -0.5037678,-0.889002 Q 6.074847,10.035845 5.2056006,9.7098775 4.346232,9.3839101 3.259674,9.2258653 2.716395,9.1369651 2.370672,8.8702645 2.0348268,8.6035639 2.0348268,8.1788185 q 0,-0.4049898 0.2370672,-0.691446 0.246945,-0.2864562 1.0272912,-0.49389 0.8593686,-0.2370672 1.5014256,-0.5827902 0.642057,-0.3556008 0.98778,-0.8099796 0.3556008,-0.4543788 0.3556008,-0.9976578 0,-0.642057 -0.5136456,-0.9976578 -0.5037678,-0.3654786 -1.48167,-0.3654786 -0.691446,0 -1.1557026,0.148167 -0.4642566,0.148167 -0.8001018,0.3358452 -0.3358452,0.1876782 -0.6223014,0.3358452 -0.2765784,0.148167 -0.60254579,0.148167 -0.3556008,0 -0.543279,-0.2074338 -0.1876782,-0.2074338 -0.1876782,-0.543279 z M 3.3880854,8.8505089 q -0.3062118,0 -0.5136456,-0.2074338 Q 2.667006,8.4257635 2.667006,8.0899183 q 0,-0.246945 0.1778004,-0.4346232 0.1876782,-0.1876782 0.5729124,-0.1876782 0.2765784,0 0.4543788,0.2370672 0.1778004,0.2271894 0.1778004,0.5136456 0,0.3556008 -0.1580448,0.49389 Q 3.7338084,8.8505089 3.3880854,8.8505089 Z M 6.1439916,2.9830957 Q 6.5983704,2.4101833 7.0428714,1.9459267 7.4873724,1.4717923 7.8824844,1.2841141 8.2874742,1.0964359 8.6134416,1.3828921 8.9789202,1.7088595 8.7714864,2.1138493 8.5739304,2.5089613 8.0602848,2.9337067 7.5466392,3.3485743 6.9737268,3.7338085 Z M 3.259674,4.7018329 Q 3.2201628,3.7831975 3.1905294,2.7855397 3.1707738,1.7780041 3.1806516,0.88900209 q 0,-0.4642566 0.197556,-0.6716904 Q 3.5856414,9.1552733e-8 3.9116088,9.1552733e-8 4.2276984,9.1552733e-8 4.4351322,0.16792269 4.642566,0.32596749 4.642566,0.84949089 4.662322,1.7483707 4.593177,2.7756619 4.524032,3.8029531 4.4054988,4.8006109 4.3659878,5.1068227 4.2178206,5.2648675 q -0.1382892,0.148167 -0.345723,0.148167 -0.246945,0 -0.4247454,-0.1580448 Q 3.2794296,5.0969449 3.259674,4.7018329 Z m 3.0028512,2.173116 Q 6.1143582,6.7959265 6.025458,6.7366597 5.9464356,6.6773929 5.8081464,6.5786149 5.679735,6.4699591 5.7093684,6.2822809 5.7390018,6.0946027 5.8674132,5.9069245 6.0057024,5.7093685 6.173625,5.6797351 q 0.1778004,-0.039511 0.3852342,0.049389 0.1185336,0.049389 0.2074338,0.1086558 0.098778,0.049389 0.1778004,0.1185336 0.079022,0.059267 0.148167,0.1284114 0.1086558,0.098778 0.079022,0.2370672 -0.029633,0.1382892 -0.1185336,0.3160896 -0.098778,0.1778004 -0.3259674,0.2667006 -0.2271894,0.0889 -0.4642562,-0.029633 z"
         style="font-family:Kablammo;-inkscape-font-specification:Kablammo;stroke-width:0.5"
         id="path578" />
      <path
         d="m 10.114876,13.097963 q 0.335845,-1.412526 0.632179,-2.578106 0.306212,-1.1655803 0.602546,-2.2027493 0.296334,-1.0470468 0.602546,-2.0644602 0.316089,-1.0174134 0.67169,-2.123727 0.296334,-0.9285132 0.681568,-1.4915478 0.385234,-0.5630346 0.98778,-0.8198574 0.612424,-0.2568228 1.590326,-0.2568228 0.661813,0 1.195214,0.1876782 0.543279,0.1778004 0.948269,0.7013238 0.404989,0.5235234 0.661812,1.5409368 0.22719,0.889002 0.484012,2.0051934 0.256823,1.1161914 0.513646,2.321283 0.256823,1.2050916 0.484012,2.3706723 0.237067,1.16558 0.424746,2.173116 0.197556,1.007535 0.325967,1.718737 0.07902,0.444501 0.04939,0.809979 -0.02963,0.355601 -0.227189,0.563035 -0.197556,0.207434 -0.612424,0.207434 -0.424745,0 -0.681568,-0.31609 Q 19.202452,15.537779 19.103674,14.974745 18.856729,13.51283 18.599906,12.080549 18.352961,10.638391 18.066505,9.0776983 17.780049,7.5071281 17.404692,5.6698573 17.167625,4.4548879 16.802146,4.0696537 q -0.365478,-0.395112 -0.977902,-0.395112 -0.721079,0 -1.096436,0.4741344 -0.365478,0.4642566 -0.424745,1.6397148 -0.0889,1.7088594 -0.158045,2.9830956 -0.05927,1.2643585 -0.118533,2.2521385 -0.05927,0.98778 -0.108656,1.837271 -0.04939,0.839613 -0.108656,1.718737 -0.06914,0.977902 -0.58279,1.501425 -0.513646,0.533402 -1.373014,0.533402 -0.997658,0 -1.452037,-0.464257 -0.444501,-0.464257 -0.4840122,-1.254481 -0.039511,-0.800101 0.1975562,-1.797759 z m 2.222505,-0.928513 q 0.345723,0 0.543279,-0.197556 0.197556,-0.207434 0.197556,-0.513646 0,-0.40499 -0.237067,-0.612424 -0.237068,-0.217311 -0.563035,-0.217311 -0.306212,0 -0.523523,0.197556 -0.217312,0.187678 -0.217312,0.592668 0,0.335845 0.197556,0.543279 0.197556,0.207434 0.602546,0.207434 z m -0.385234,2.82505 q 0.375356,0 0.612423,-0.207433 0.237067,-0.207434 0.237067,-0.592668 0,-0.424746 -0.237067,-0.671691 -0.237067,-0.246945 -0.701324,-0.246945 -0.395112,0 -0.612423,0.237067 -0.207434,0.237068 -0.207434,0.671691 0,0.375356 0.237067,0.592668 0.246945,0.217311 0.671691,0.217311 z m -1.185336,-1.857026 q -0.217312,-0.02963 -0.306212,-0.158045 -0.0889,-0.128411 -0.02963,-0.454379 0.04939,-0.296334 0.158045,-0.385234 0.118534,-0.09878 0.355601,-0.06914 z m 2.726272,-0.572912 q 0.187679,0.06914 0.266701,0.167922 0.0889,0.09878 0.09878,0.22719 0.0099,0.128411 -0.02963,0.276578 -0.0889,0.355601 -0.237068,0.444501 -0.148167,0.0889 -0.3556,0.0889 z m -1.264358,-5.7488799 -0.31609,1.4619144 q -0.148167,-0.049389 -0.207433,-0.246945 -0.04939,-0.2074338 0.04939,-0.6025458 0.108655,-0.3852342 0.217311,-0.5136456 0.108656,-0.1284114 0.256823,-0.098778 z m 1.619959,3.3979629 V 9.9173113 q 0.05927,0 0.0889,0.039511 0.02963,0.029633 0.02963,0.1185337 0,0.05927 -0.02963,0.0889 -0.02963,0.02963 -0.0889,0.04939 z m 4.583299,-1.4421585 0.296334,1.4224035 q -0.661812,0.158044 -1.185336,0.237067 -0.523523,0.06914 -0.829735,-0.03951 -0.306212,-0.118534 -0.306212,-0.5235237 0,-0.3358452 0.444501,-0.6025458 0.444501,-0.2667006 1.580448,-0.493891 z m 1.264359,1.2050916 -0.31609,-1.4421588 q 0.701324,-0.1382892 1.234725,-0.2074338 0.543279,-0.069145 0.849491,0.039511 0.306212,0.098778 0.306212,0.5037678 0,0.296334 -0.424746,0.5630346 -0.414867,0.2568228 -1.649592,0.5432792 z m -0.07902,2.3311609 -0.217311,-1.343381 q 0.296334,-0.07902 0.49389,-0.02963 0.197556,0.03951 0.296334,0.217311 0.09878,0.167923 0.09878,0.49389 0,0.276579 -0.167923,0.434623 -0.158045,0.148167 -0.503768,0.22719 z m -0.908757,-0.612424 0.335845,1.461915 q -0.839613,0.187678 -1.452037,0.138289 -0.602545,-0.04939 -0.602545,-0.622302 0,-0.345723 0.385234,-0.553156 0.395112,-0.207434 1.333503,-0.424746 z m 1.758248,2.78554 -0.296334,-1.422403 q 0.829735,-0.03951 1.333503,0.02963 0.513646,0.06915 0.513646,0.622301 0,0.296334 -0.306212,0.49389 -0.306212,0.187679 -1.244603,0.276579 z M 16.071189,7.8232177 q -0.49389,0 -0.740835,-0.2370672 -0.237067,-0.246945 -0.237067,-0.6716904 0,-0.4247454 0.276578,-0.6716904 0.276579,-0.2568228 0.661813,-0.2568228 0.434623,0 0.661813,0.2765784 0.237067,0.2765784 0.237067,0.642057 0,0.4741344 -0.276579,0.7013238 -0.276578,0.2173116 -0.58279,0.2173116 z"
         style="font-family:Kablammo;-inkscape-font-specification:Kablammo;stroke-width:0.5"
         id="path580" />
      <path
         d="m 22.679411,13.82892 q 0.138289,-0.385234 0.474135,-1.30387 0.335845,-0.928513 0.770468,-2.123727 0.434623,-1.2050911 0.869246,-2.4003049 0.03951,-0.0889 0.06914,-0.1778004 0.02963,-0.0889 0.05927,-0.1679226 0.02963,-0.0889 0.05927,-0.1778004 0.04939,-0.1185336 0.0889,-0.2370672 0.04939,-0.1284114 0.0889,-0.246945 0.118534,-0.3160896 0.227189,-0.6124236 0.108656,-0.3062118 0.207434,-0.5827902 0.03951,-0.0889 0.06915,-0.1679226 0.02963,-0.0889 0.05927,-0.1679226 0.02963,-0.0889 0.05927,-0.1679226 0.04939,-0.148167 0.09878,-0.2765784 0.05927,-0.1382892 0.09878,-0.2667006 0.158045,-0.4148676 0.246945,-0.6618126 0.09878,-0.2568228 0.108656,-0.296334 0.31609,-0.8198574 0.948269,-1.2149694 0.632179,-0.4049898 1.442159,-0.3852342 0.849491,0.00988 1.461914,0.444501 0.612424,0.4346232 0.770469,1.3137474 0.01975,0.1185336 0.03951,0.2370672 0.02963,0.1185336 0.03951,0.2370672 -1.185336,0.1185336 -1.600204,0.3160896 -0.414867,0.1876782 -0.414867,0.5334012 0,0.4247454 0.286456,0.5531568 0.296334,0.1185336 0.800102,0.059267 0.513645,-0.059267 1.16558,-0.1778004 0.05927,0.296334 0.118534,0.592668 0.05927,0.296334 0.09878,0.592668 -0.918636,0.1185336 -1.293992,0.3062118 -0.365479,0.1876782 -0.365479,0.5630346 0,0.4346232 0.286457,0.5531568 0.286456,0.1185336 0.721079,0.059267 0.434623,-0.069145 0.889002,-0.197556 0.197556,0.98778 0.385234,1.9755591 0.187678,0.98778 0.365479,1.965683 0.1778,0.977902 0.355601,1.955804 0.1778,0.968024 0.335845,1.926171 0.108656,0.543279 -0.118534,0.839613 -0.227189,0.306212 -0.553157,0.306212 -0.246945,0 -0.503767,-0.187678 -0.256823,-0.187679 -0.40499,-0.582791 Q 30.789085,14.164765 29.998861,11.813849 29.208637,9.4530547 28.448046,7.3490833 28.240613,6.7662931 28.033179,6.5094703 27.835623,6.2427697 27.480022,6.2427697 q -0.335845,0 -0.563035,0.2370672 -0.217311,0.2370672 -0.385234,0.889002 -0.454379,1.7582484 -0.89888,3.5757631 -0.444501,1.817516 -0.879124,3.496742 -0.148167,0.543279 -0.464256,0.790224 -0.31609,0.237067 -0.661813,0.237067 -0.632179,0 -0.908758,-0.474135 -0.276578,-0.484012 -0.03951,-1.16558 z m 1.995316,-3.022607 0.375356,-1.2446025 q 0.464257,-0.019756 0.908758,-0.019756 0.454379,0 0.908757,0.019756 0.681569,0.029633 1.017414,0.1679226 0.345723,0.1382892 0.345723,0.5827899 0,0.424746 -0.296334,0.58279 -0.296334,0.148167 -1.145825,0.108656 -0.533401,-0.02963 -1.066802,-0.07902 -0.523524,-0.05927 -1.047047,-0.118534 z m 0.197556,2.548473 q -0.454379,-0.05927 -0.730957,-0.246945 -0.276579,-0.187679 -0.276579,-0.484013 0,-0.464256 0.355601,-0.58279 0.365479,-0.118533 0.869246,-0.06914 1.293992,0.09878 2.706518,0.237067 1.422403,0.128411 2.82505,0.276578 l 0.395112,1.501426 q -1.65947,-0.148167 -3.239918,-0.306212 -1.57057,-0.167923 -2.904073,-0.325967 z M 25.504462,6.6576373 Q 24.842649,6.3810589 24.43766,6.1736251 24.042548,5.9563135 23.864747,5.7587575 q -0.1778,-0.197556 -0.1778,-0.4247454 0,-0.4642566 0.335845,-0.5630346 0.335845,-0.1086558 0.879124,0.039511 0.553157,0.1382892 1.165581,0.4049898 z M 24.813016,8.9492869 Q 24.03267,8.7319753 23.568413,8.5640527 23.114034,8.3961301 22.916478,8.2282075 22.718922,8.0504071 22.718922,7.8232177 q 0,-0.4741344 0.335846,-0.5729124 0.335845,-0.1086558 0.889002,0.029633 0.563034,0.1284114 1.224847,0.3654786 z M 30.36434,10.905091 30.068006,9.4234213 q 0.503767,-0.0889 0.809979,-0.079022 0.31609,0 0.454379,0.2173116 0.138289,0.2074338 0.138289,0.7309571 0,0.365478 -0.276578,0.464256 -0.276579,0.09878 -0.829735,0.148167 z m 0.711201,3.160896 -0.296334,-1.580448 q 0.513646,-0.108656 0.819858,-0.0889 0.306211,0.01976 0.444501,0.256823 0.138289,0.237067 0.138289,0.780346 0,0.395112 -0.276579,0.503768 -0.276578,0.09878 -0.829735,0.128411 z"
         style="font-family:Kablammo;-inkscape-font-specification:Kablammo;stroke-width:0.5"
         id="path582" />
      <path
         d="m 38.177691,14.678411 q 0.05927,0.49389 0,0.849491 -0.05927,0.3556 -0.237067,0.543279 -0.167923,0.187678 -0.454379,0.187678 -0.365478,0 -0.58279,-0.31609 Q 36.686143,15.636557 36.577488,15.073523 36.172498,12.959674 35.886042,11.44837 35.609463,9.9370669 35.411907,8.8307533 35.214351,7.7145619 35.076062,6.8453155 34.937773,5.9661913 34.819239,5.1364561 34.68095,4.1585539 34.888384,3.5757637 q 0.217311,-0.5827902 0.829735,-0.889002 0.612424,-0.3062118 1.689104,-0.4543788 0.464256,-0.069145 0.948269,-0.1284114 0.484012,-0.059267 0.948268,-0.098778 0.464257,-0.049389 0.879125,-0.079022 0.414867,-0.039511 0.740835,-0.049389 1.037169,-0.049389 1.550814,0.4840122 0.523524,0.5334012 0.523524,1.5705702 0,1.0668024 -0.365479,1.6002036 -0.355601,0.5235234 -0.938391,0.6815682 -0.572912,0.148167 -1.244603,0.098778 -0.67169,-0.059267 -1.303869,-0.1580448 -0.622302,-0.098778 -1.086558,-0.0889 -0.464257,0.00988 -0.612424,0.3160896 -0.01976,0.039511 -0.03951,0.079022 -0.0099,0.039511 -0.02963,0.0889 -0.0099,0.049389 -0.01976,0.1086558 0,0.059267 -0.0099,0.1284114 0,0.069145 0,0.148167 0,0.0889 0,0.1778004 0,0.079022 0,0.1679226 0.0099,0.079022 0.01976,0.1679226 0.0099,0.079022 0.01976,0.1679226 0.0099,0.0889 0.01976,0.1876782 0.06914,0.5729124 0.158045,1.3433808 0.0889,0.7605906 0.187678,1.6594701 0.09878,0.889002 0.207434,1.876782 0.108655,0.977902 0.217311,1.995316 z m -1.16558,-7.8824845 q 0,0 0,0 0,0 0,0 0,0 0,0 0,0 0,0 0,0 0,0 0,0 0,0 0,0 0,0 0,0 0,0 z M 36.547854,4.8401221 q 0.414868,0 0.572913,-0.1679226 0.167922,-0.1679226 0.167922,-0.5235234 0,-0.2765784 -0.187678,-0.4543788 -0.187678,-0.1778004 -0.414868,-0.1778004 -0.375356,0 -0.553156,0.2271894 -0.167923,0.2173116 -0.167923,0.5630346 0,0.2568228 0.1778,0.395112 0.187679,0.1382892 0.40499,0.1382892 z m 2.301528,-0.059267 q 0.345723,0 0.513645,-0.1778004 0.177801,-0.1876782 0.177801,-0.5531568 0,-0.2864562 -0.167923,-0.4642566 -0.158045,-0.1876782 -0.464257,-0.1876782 -0.434623,0 -0.592668,0.1778004 -0.158044,0.1679226 -0.158044,0.4642566 0,0.3654786 0.1778,0.5531568 0.1778,0.1876782 0.513646,0.1876782 z m 2.262016,0.1382892 q 0.484012,0 0.681568,-0.1679226 0.197556,-0.1778004 0.197556,-0.6815682 0,-0.3259674 -0.256823,-0.5136456 -0.246945,-0.197556 -0.533401,-0.197556 -0.454379,0 -0.612424,0.246945 -0.158044,0.246945 -0.158044,0.5334012 0,0.4247454 0.197556,0.6025458 0.207433,0.1778004 0.484012,0.1778004 z m -3.585642,7.7244397 -0.3556,-1.382892 q 0.750712,-0.06915 1.373014,-0.128411 0.632179,-0.06915 1.007535,0.04939 0.385235,0.108655 0.385235,0.572912 0,0.484012 -0.651935,0.612424 -0.651935,0.118533 -1.758249,0.276578 z m -1.48167,-5.7291241 0.454379,1.382892 q -0.691446,0.0889 -1.353258,0.1778004 -0.661813,0.0889 -1.086558,-0.029633 -0.424746,-0.1185336 -0.424746,-0.6321792 0,-0.5531568 0.661813,-0.691446 0.67169,-0.1382892 1.74837,-0.2074342 z m 4.030143,0.8494908 q 0.345723,0 0.533401,0.246945 0.197556,0.246945 0.197556,0.6025458 0,0.444501 -0.266701,0.8099796 -0.256822,0.3556008 -0.839613,0.3556008 -0.424745,0 -0.67169,-0.3259674 -0.237067,-0.3259674 -0.237067,-0.691446 0,-0.5037678 0.296334,-0.7507128 0.296334,-0.246945 0.98778,-0.246945 z"
         style="font-family:Kablammo;-inkscape-font-specification:Kablammo;stroke-width:0.5"
         id="path584" />
      <path
         d="m 48.608642,16.002036 q -1.906415,0 -3.121385,-0.928513 -1.214969,-0.938391 -1.797759,-2.578106 -0.572913,-1.639715 -0.572913,-3.7634417 0,-1.9953156 0.661813,-3.6152748 0.67169,-1.6199592 1.945927,-2.5781058 1.274236,-0.9581466 3.101629,-0.9581466 1.116191,0 2.094093,0.395112 0.977903,0.395112 1.728615,1.2248472 0.760591,0.8198574 1.185336,2.1039714 0.424746,1.284114 0.424746,3.0719958 0,2.2126275 -0.661813,3.9412425 -0.651935,1.718737 -1.916293,2.706517 -1.264358,0.977902 -3.071996,0.977902 z m -0.474134,-4.286965 q 1.313747,0 2.262016,-0.58279 0.958147,-0.592668 1.471792,-1.6199595 0.513646,-1.0272912 0.513646,-2.3607942 0,-1.3532586 -0.484012,-2.2916496 -0.484013,-0.938391 -1.313748,-1.4224032 -0.819857,-0.49389 -1.837271,-0.49389 -1.313747,0 -2.212627,0.7210794 -0.89888,0.7112016 -1.363136,1.8866598 -0.454379,1.1754582 -0.454379,2.5484724 0,0.9976578 0.345723,1.8175152 0.355601,0.8198577 1.106314,1.3137477 0.76059,0.484012 1.965682,0.484012 z m 3.318941,0.138289 q -0.325968,0 -0.513646,0.167923 -0.1778,0.167922 -0.1778,0.602545 0,0.296334 0.167922,0.464257 0.167923,0.167923 0.58279,0.167923 0.31609,0 0.484013,-0.187679 0.167922,-0.187678 0.167922,-0.484012 0,-0.40499 -0.167922,-0.563034 -0.167923,-0.167923 -0.543279,-0.167923 z m -2.133605,0.908758 q -0.385234,0 -0.632179,0.227189 -0.237068,0.227189 -0.237068,0.661813 0,0.365478 0.207434,0.612423 0.207434,0.237067 0.681568,0.237067 0.434624,0 0.642057,-0.237067 0.207434,-0.246945 0.207434,-0.553157 0,-0.503767 -0.237067,-0.721079 -0.227189,-0.227189 -0.632179,-0.227189 z m -2.489206,0.07902 q -0.2667,0 -0.454379,0.158045 -0.1778,0.158045 -0.1778,0.454379 0,0.424745 0.187678,0.612423 0.187678,0.177801 0.543279,0.177801 0.355601,0 0.513646,-0.167923 0.158045,-0.167923 0.158045,-0.58279 0,-0.266701 -0.207434,-0.454379 -0.207434,-0.197556 -0.563035,-0.197556 z m 4.780855,-9.7987775 q -0.0889,0.1580448 -0.1778,0.3358452 -0.0889,0.1679226 -0.1778,0.3358452 -0.454379,0.8297352 -0.790224,1.1557026 -0.335846,0.3160896 -0.691446,0.1284114 -0.246945,-0.1382892 -0.246945,-0.4840122 0,-0.3556008 0.306211,-0.9581466 0.256823,-0.4642566 0.375357,-0.6618126 0.128411,-0.197556 0.217311,-0.345723 0.13829,-0.2271894 0.375357,-0.246945 0.237067,-0.019756 0.454379,0.0889 0.207433,0.098778 0.325967,0.2864562 0.118534,0.1876782 0.02963,0.3654786 z m -4.741344,-0.059267 q 0.177801,0.1580448 0.365479,0.3259674 0.187678,0.1679226 0.365479,0.3654786 0.651934,0.7112016 0.721079,1.086558 0.07902,0.3654786 -0.128411,0.5729124 -0.217312,0.2173116 -0.582791,0.1382892 -0.365478,-0.0889 -0.958146,-0.6519348 -0.355601,-0.3259674 -0.563035,-0.5334012 -0.197556,-0.2074338 -0.365478,-0.4148676 -0.118534,-0.1679226 -0.03951,-0.395112 0.07902,-0.2370672 0.237068,-0.395112 0.1778,-0.197556 0.444501,-0.2568228 0.2667,-0.069145 0.503767,0.1580448 z M 44.5785,5.8674133 q 0.414867,0.0889 0.819857,0.1778004 0.40499,0.079022 0.819858,0.197556 1.007535,0.2765784 1.274236,0.5235234 0.2667,0.2370672 0.187678,0.5630346 -0.06914,0.3358452 -0.434623,0.4049898 -0.365479,0.059267 -1.30387,-0.069145 -0.414867,-0.059266 -0.839613,-0.128411 -0.424745,-0.079022 -0.839613,-0.1679226 -0.2667,-0.059267 -0.345723,-0.3358452 -0.07902,-0.2765784 -0.0099,-0.5531568 0.05927,-0.2864562 0.237068,-0.4741344 0.187678,-0.1876782 0.434623,-0.1382892 z m -0.256823,4.049898 q 0.108656,-0.079022 0.217312,-0.1382892 0.118533,-0.069145 0.217311,-0.1382892 0.730957,-0.444501 1.145825,-0.592668 0.424745,-0.148167 0.632179,-0.098778 0.217312,0.049389 0.31609,0.197556 0.118533,0.1679226 0.07902,0.395112 -0.02963,0.2173116 -0.365478,0.5235231 -0.335846,0.306212 -1.116192,0.72108 -0.128411,0.06914 -0.276578,0.148167 -0.138289,0.06914 -0.276579,0.148167 -0.237067,0.118533 -0.444501,0.01975 -0.197556,-0.108656 -0.306211,-0.316089 -0.09878,-0.207434 -0.07902,-0.464257 0.01976,-0.256823 0.256823,-0.4049897 z m 8.89002,-4.4647656 q 0.148167,-0.029633 0.256823,0.1284114 0.118533,0.1580448 0.1778,0.3852342 0.05927,0.2765784 0.02963,0.5334012 -0.02963,0.2568228 -0.207434,0.2765784 -0.03951,0 -0.0889,0.00988 -0.03951,0.00988 -0.0889,0.00988 -0.1778,0.00988 -0.296334,-0.1778004 -0.108655,-0.197556 -0.158044,-0.4346232 -0.02963,-0.2568228 0.02963,-0.4642566 0.06914,-0.2173116 0.246945,-0.246945 0.02963,0 0.04939,-0.00988 0.01976,-0.00988 0.04939,-0.00988 z M 52.856096,10.0556 q 0.04939,0.05927 0.0889,0.108656 0.04939,0.04939 0.0889,0.108656 0.108655,0.128411 0.04939,0.266701 -0.04939,0.138289 -0.167923,0.246945 -0.118534,0.0889 -0.256823,0.118533 -0.138289,0.01976 -0.217311,-0.09878 -0.05927,-0.0889 -0.118534,-0.167922 -0.05927,-0.07902 -0.118534,-0.167923 -0.118533,-0.167923 -0.06914,-0.306212 0.04939,-0.138289 0.167922,-0.2074335 0.118534,-0.079022 0.276579,-0.059267 0.158045,0.00988 0.276578,0.1580445 z"
         style="font-family:Kablammo;-inkscape-font-specification:Kablammo;stroke-width:0.5"
         id="path586" />
      <path
         d="m 60.06688,1.7582485 q 0.968025,0 1.471792,0.4642566 0.513646,0.4642566 0.889002,1.580448 0.118534,0.345723 0.22719,0.7210794 0.118533,0.3654786 0.246945,0.7507128 0.03951,0.1185336 0.07902,0.2370672 0.04939,0.1185336 0.0889,0.2370672 0.03951,0.1185336 0.07902,0.246945 0.02963,0.0889 0.05927,0.1778004 0.02963,0.0889 0.05927,0.1778004 0.02963,0.0889 0.05927,0.1778004 0.05927,0.1778004 0.118534,0.3556008 0.05927,0.1778004 0.118533,0.3556008 0.02963,0.098778 0.05927,0.1876782 0.02963,0.0889 0.05927,0.1778004 0.07902,0.2173116 0.138289,0.4346232 0.06914,0.2173116 0.138289,0.4247454 0.02963,0.079022 0.148167,0.5136456 0.118534,0.4247454 0.276579,1.0272907 0.167922,0.592668 0.325967,1.185336 0.167923,0.592668 0.276579,1.017414 0.118533,0.414867 0.138289,0.474134 0.108656,0.365479 0.355601,0.523524 0.246945,0.148167 0.67169,0.148167 0.829735,0 1.155703,0.246945 0.335845,0.237067 0.335845,0.908757 0,0.266701 -0.05927,0.859369 -0.04939,0.592668 -0.128411,1.214969 -0.06915,0.622302 -0.118534,0.997658 -0.06914,0.474134 -0.197556,0.730957 -0.118534,0.256823 -0.434623,0.256823 -0.276579,0 -0.454379,-0.217312 -0.1778,-0.207433 -0.237067,-0.651934 -0.01976,-0.197556 -0.06915,-0.572913 -0.03951,-0.375356 -0.0889,-0.740835 -0.03951,-0.365478 -0.07902,-0.523523 -0.05927,-0.266701 -0.158045,-0.414868 -0.0889,-0.158045 -0.434623,-0.276578 -0.22719,-0.07902 -0.800102,-0.128412 -0.572913,-0.04939 -1.323625,-0.05927 -0.740835,-0.01976 -1.511304,-0.0099 -0.770468,0 -1.412525,0.0099 -0.632179,0.0099 -0.977902,0.02963 -0.414868,0.0099 -0.543279,0.158045 -0.128412,0.148167 -0.128412,0.355601 0,0.1778 0.0889,0.464256 0.0889,0.296334 0.207434,0.612424 0.118534,0.316089 0.207434,0.58279 0.0889,0.276578 0.0889,0.414868 0,0.365478 -0.217311,0.503767 -0.207434,0.148167 -0.474135,0.148167 -0.296334,0 -0.464256,-0.158044 -0.167923,-0.148167 -0.246945,-0.474135 -0.03951,-0.207434 -0.108656,-0.572912 -0.06914,-0.355601 -0.128412,-0.632179 -0.04939,-0.256823 -0.167922,-0.424746 -0.118534,-0.167922 -0.375357,-0.167922 0,0 0,0 0,0 0,0 0,0 0,0 0,0 0,0 -0.217311,0 -0.365478,0.148167 -0.138289,0.148167 -0.158045,0.444501 -0.0099,0.197556 0.01976,0.553156 0.02963,0.355601 0.05927,0.701324 0.03951,0.355601 0.03951,0.543279 0,0.612424 -0.49389,0.612424 -0.296334,0 -0.474135,-0.276579 -0.167922,-0.2667 -0.375356,-0.928513 -0.158045,-0.503768 -0.306212,-1.017413 -0.148167,-0.513646 -0.246945,-0.958147 -0.09878,-0.444501 -0.09878,-0.750713 0,-0.444501 0.1778,-0.691446 0.177801,-0.246945 0.711202,-0.395112 0.325967,-0.0889 0.622301,-0.256822 0.306212,-0.167923 0.395112,-0.730958 0.07902,-0.533401 0.187679,-1.234725 0.118533,-0.711201 0.246945,-1.511303 0.128411,-0.8001017 0.2667,-1.6199591 0.148167,-0.8198574 0.296334,-1.580448 0.849491,0.197556 1.402648,0.1876782 0.553157,-0.00988 0.553157,-0.5136456 0,-0.2864562 -0.355601,-0.49389 -0.355601,-0.2074338 -1.402648,-0.3062118 0.05927,-0.3160896 0.118534,-0.6223014 0.05927,-0.3062118 0.118533,-0.6025458 0.701324,0.1382892 1.284114,0.2074338 0.592668,0.069145 0.948269,-0.019756 0.355601,-0.098778 0.355601,-0.4543788 0,-0.345723 -0.484012,-0.5531568 -0.484012,-0.2074338 -1.88666,-0.3062118 0.01976,-0.079022 0.02963,-0.1580448 0.01976,-0.0889 0.02963,-0.1580448 0.138289,-0.6716904 0.651935,-0.9976578 0.523523,-0.3259674 1.303869,-0.3259674 z m 1.264359,4.3264764 q -0.266701,0 -0.503768,0.3160896 -0.237067,0.3062118 -0.681568,1.284114 -0.375357,0.8297352 -0.879125,2.0545824 -0.49389,1.2248471 -0.958146,2.4892051 -0.286456,0.780347 -0.177801,1.086558 0.108656,0.306212 0.592668,0.296334 0.345723,-0.01975 0.829736,-0.03951 0.49389,-0.01975 1.047046,-0.04939 0.553157,-0.02963 1.106314,-0.05927 0.553157,-0.02963 1.007536,-0.04939 0.58279,-0.02963 0.730957,-0.207433 0.148167,-0.187679 0.03951,-0.602546 Q 63.267287,11.705193 63.03022,10.796435 62.803031,9.8876779 62.575841,9.0283093 62.348652,8.1689407 62.141218,7.4083501 62.032562,7.0132381 61.923907,6.7169041 61.815251,6.4205701 61.676962,6.2526475 61.538672,6.0847249 61.331239,6.0847249 Z m 4.365987,5.9859471 q -0.592668,0.0099 -1.16558,0.02963 -0.572913,0.0099 -1.116192,0.01976 -0.533401,0.0099 -1.037169,0.01975 -0.49389,0 -0.948268,-0.0099 -0.543279,-0.0099 -0.780347,-0.167922 -0.227189,-0.158045 -0.227189,-0.464257 0,-0.256823 0.167923,-0.424745 0.1778,-0.167923 0.780346,-0.207434 0.523523,-0.02963 1.066802,-0.05927 0.553157,-0.02963 1.106314,-0.04939 0.563034,-0.02963 1.096436,-0.03951 0.543279,-0.01976 1.037169,-0.02963 0.58279,-0.01976 0.819857,0.1778 0.246945,0.187678 0.246945,0.454379 0,0.296334 -0.227189,0.513645 -0.22719,0.217312 -0.819858,0.237068 z m -7.941751,-1.540937 q 0,0 0,0 0,0 0,0 0,0 0,0 0,0 0,0 0,0 0,0 0,0 0,0 0,0 0,0 0,0 0,0 0,0 0,0 0,0 0,0 0,0 0,0 0,0 0,0 z M 57.893764,9.2159875 Q 57.59743,9.2061097 57.478897,8.9986759 57.360363,8.7912421 57.370241,8.6430751 q 0.01975,-0.1382892 0.128411,-0.3259674 0.118534,-0.1876782 0.40499,-0.1876782 0.266701,0 0.414868,0 0.148167,0 0.424745,0.019756 0.237067,0.00988 0.306212,0.2173116 0.06914,0.2074338 0.06914,0.3358452 0,0.1580448 -0.0889,0.345723 -0.0889,0.1778004 -0.316089,0.1778004 -0.237068,0 -0.375357,0 -0.128411,0 -0.444501,-0.00988 z m 6.795927,-2.2521384 q -0.335846,0 -0.829736,0.00988 -0.49389,0.00988 -0.98778,0 -0.444501,-0.00988 -0.553156,-0.1778004 -0.09878,-0.1679226 -0.09878,-0.4741344 0,-0.2568228 0.138289,-0.4741344 0.138289,-0.2173116 0.612423,-0.2370672 0.563035,-0.029633 0.938391,-0.029633 0.375357,0 0.760591,0.00988 0.563035,0.00988 0.80998,0.197556 0.256822,0.1876782 0.256822,0.5037678 0,0.296334 -0.227189,0.4840122 -0.227189,0.1876782 -0.819857,0.1876782 z m 0.3556,2.5583502 q -0.424745,0.00988 -0.67169,0.019756 -0.237067,0.00988 -0.454379,0.00988 -0.207434,-0.00988 -0.533401,-0.00988 -0.444501,-0.00988 -0.632179,-0.1778004 -0.177801,-0.1679226 -0.177801,-0.4741344 0,-0.2568228 0.13829,-0.4741344 0.138289,-0.2173116 0.612423,-0.2370672 0.563035,-0.029633 0.859369,-0.029633 0.306212,0 0.839613,-0.00988 0.58279,-0.00988 0.819857,0.1778004 0.246945,0.1876782 0.246945,0.4543788 0,0.296334 -0.227189,0.5136456 -0.22719,0.2173116 -0.819858,0.2370672 z"
         style="font-family:Kablammo;-inkscape-font-specification:Kablammo;stroke-width:0.5"
         id="path588" />
      <path
         d="m 68.22595,14.125254 q 0.02963,-0.09878 0.04939,-0.197556 0.02963,-0.09878 0.04939,-0.197556 0.02963,-0.09878 0.05927,-0.197556 0.642057,0.167923 1.145825,0.256823 0.513646,0.07902 0.80998,-0.01976 0.296334,-0.09878 0.296334,-0.49389 0,-0.296334 -0.395112,-0.484012 -0.385235,-0.187678 -1.560693,-0.40499 0.07902,-0.2667 0.148167,-0.543279 0.07902,-0.276578 0.148167,-0.543279 0.661813,0.158045 1.126069,0.22719 0.474135,0.06914 0.72108,-0.03951 0.246945,-0.118533 0.246945,-0.523523 0,-0.345723 -0.40499,-0.513646 -0.395112,-0.1778 -1.373014,-0.296334 0.40499,-1.4717917 0.819857,-2.9633395 0.414868,-1.4915478 0.839613,-2.9830956 0.345723,-1.185336 0.958147,-1.6100814 0.612423,-0.4247454 1.48167,-0.4049898 1.037169,0.00988 1.531059,0.6025458 0.49389,0.592668 0.770468,1.6495926 0.01976,0.079022 0.04939,0.1876782 0.02963,0.098778 0.05927,0.2173116 0.03951,0.1284114 0.07902,0.296334 0.04939,0.1580448 0.0889,0.3358452 0.02963,0.098778 0.05927,0.2074338 0.02963,0.098778 0.04939,0.2074338 0.02963,0.098778 0.05927,0.2074338 0.04939,0.1876782 0.09878,0.395112 0.05927,0.2074338 0.118534,0.4247454 0.04939,0.197556 0.09878,0.4049898 0.05927,0.197556 0.118533,0.4049898 0.02963,0.098778 0.04939,0.2074338 0.02963,0.098778 0.05927,0.197556 0.02963,0.098778 0.04939,0.2074338 0.22719,0.8593686 0.464257,1.7483709 0.237067,0.879124 0.444501,1.689103 0.217311,0.80998 0.385234,1.461915 0.1778,0.642057 0.276578,1.037169 0.167923,0.622301 -0.07902,0.977902 -0.237067,0.345723 -0.730957,0.345723 -0.355601,0 -0.592668,-0.227189 -0.237067,-0.22719 -0.355601,-0.701324 -0.572912,-2.212627 -1.106314,-4.573422 -0.523523,-2.3607937 -1.106313,-4.6721989 -0.118534,-0.4741344 -0.276579,-0.6716904 -0.158044,-0.197556 -0.454378,-0.197556 -0.306212,0 -0.49389,0.2173116 -0.177801,0.2173116 -0.237068,0.7112016 -0.2667,2.3114052 -0.513645,4.6820771 -0.246945,2.360794 -0.533401,4.543788 -0.118534,0.918635 -0.661813,1.353259 -0.543279,0.444501 -1.195214,0.444501 -1.007535,0 -1.511303,-0.691446 -0.49389,-0.681569 -0.22719,-1.698982 z m 3.793076,-1.955804 0.09878,-1.501426 q 0.977902,-0.0889 1.926171,-0.148167 0.958146,-0.06915 1.906415,-0.128411 0.642057,-0.04939 0.849491,0.207433 0.217311,0.246945 0.217311,0.543279 0,0.246945 -0.1778,0.454379 -0.1778,0.197556 -0.770468,0.256823 -1.017414,0.09878 -2.034827,0.1778 -1.017414,0.07902 -2.015071,0.13829 z m 5.195722,1.205091 q -0.217311,-0.02963 -0.345723,-0.197556 -0.128411,-0.167922 -0.128411,-0.375356 0,-0.207434 0.128411,-0.375357 0.13829,-0.1778 0.40499,-0.1778 0.04939,0 0.0889,0 0.04939,0 0.0889,0 l 0.256822,1.16558 q -0.118533,0 -0.256822,-0.0099 -0.128412,-0.01976 -0.237068,-0.02963 z m -7.842973,2.350917 q -0.207434,-0.09878 -0.296334,-0.207434 -0.07902,-0.118534 -0.0889,-0.256823 -0.0099,-0.148167 -0.0099,-0.325967 0,-0.345723 0.128412,-0.503768 0.138289,-0.167923 0.3556,-0.187678 0.217312,-0.02963 0.484013,0.03951 z m 0.177801,0.09878 q -0.31609,-0.04939 -0.484013,-0.128412 -0.167922,-0.07902 -0.227189,-0.246945 -0.05927,-0.1778 -0.05927,-0.49389 0,-0.306212 0.167923,-0.424745 0.167922,-0.128412 0.434623,-0.128412 0.266701,0 0.563035,0.05927 z M 76.226968,7.4083501 75.792345,6.1044805 q 0.701324,-0.2074338 1.264359,-0.3259674 0.563034,-0.1284114 0.889002,-0.019756 0.335845,0.098778 0.335845,0.5827902 0,0.3358452 -0.454379,0.5729124 -0.454379,0.2370672 -1.600204,0.4938904 z M 76.641836,9.8185333 76.44428,8.4949081 q 0.691446,-0.148167 1.16558,-0.197556 0.474135,-0.059267 0.72108,0.0889 0.246945,0.148167 0.246945,0.6025458 0,0.4148676 -0.434623,0.5729124 -0.434624,0.148167 -1.501426,0.256823 z"
         style="font-family:Kablammo;-inkscape-font-specification:Kablammo;stroke-width:0.5"
         id="path590" />
    </g>
  </g>
</svg>
